<mxfile host="app.diagrams.net" agent="Mozilla/5.0 (X11; Ubuntu; Linux x86_64; rv:133.0) Gecko/20100101 Firefox/133.0" version="26.0.2">
  <diagram name="第 1 页" id="vUy5XkHIIizd0actGJSG">
    <mxGraphModel dx="2261" dy="822" grid="1" gridSize="10" guides="1" tooltips="1" connect="1" arrows="1" fold="1" page="1" pageScale="1" pageWidth="827" pageHeight="1169" math="1" shadow="0">
      <root>
        <mxCell id="0" />
        <mxCell id="1" parent="0" />
        <mxCell id="jZXJ3xpho7NZ7XZF-Gar-2" value="" style="rounded=1;whiteSpace=wrap;html=1;fillColor=#e1d5e7;strokeColor=#9673a6;" vertex="1" parent="1">
          <mxGeometry x="-281.95" y="825.41" width="981.95" height="250" as="geometry" />
        </mxCell>
        <mxCell id="-TU9CiSfj5TCnxWYMpBO-1" value="&lt;div style=&quot;font-size: 17px;&quot;&gt;&lt;br style=&quot;font-size: 17px;&quot;&gt;&lt;/div&gt;&lt;div style=&quot;font-size: 17px;&quot;&gt;&lt;br style=&quot;font-size: 17px;&quot;&gt;&lt;/div&gt;&lt;div style=&quot;font-size: 17px;&quot;&gt;&lt;br style=&quot;font-size: 17px;&quot;&gt;&lt;/div&gt;&lt;div style=&quot;font-size: 17px;&quot;&gt;&lt;br style=&quot;font-size: 17px;&quot;&gt;&lt;/div&gt;&lt;div style=&quot;font-size: 17px;&quot;&gt;&lt;br style=&quot;font-size: 17px;&quot;&gt;&lt;/div&gt;&lt;div style=&quot;font-size: 17px;&quot;&gt;&lt;br style=&quot;font-size: 17px;&quot;&gt;&lt;/div&gt;&lt;div style=&quot;font-size: 17px;&quot;&gt;&lt;br style=&quot;font-size: 17px;&quot;&gt;&lt;/div&gt;&lt;div style=&quot;font-size: 17px;&quot;&gt;&lt;br style=&quot;font-size: 17px;&quot;&gt;&lt;/div&gt;&lt;div style=&quot;font-size: 17px;&quot;&gt;&lt;br style=&quot;font-size: 17px;&quot;&gt;&lt;/div&gt;&lt;div style=&quot;font-size: 17px;&quot;&gt;&lt;br style=&quot;font-size: 17px;&quot;&gt;&lt;/div&gt;&lt;div style=&quot;font-size: 17px;&quot;&gt;&lt;br style=&quot;font-size: 17px;&quot;&gt;&lt;/div&gt;&lt;div style=&quot;font-size: 17px;&quot;&gt;&lt;br style=&quot;font-size: 17px;&quot;&gt;&lt;/div&gt;&lt;div style=&quot;font-size: 17px;&quot;&gt;&lt;br style=&quot;font-size: 17px;&quot;&gt;&lt;/div&gt;&lt;div style=&quot;font-size: 17px;&quot;&gt;&lt;br style=&quot;font-size: 17px;&quot;&gt;&lt;/div&gt;&lt;div style=&quot;font-size: 17px;&quot;&gt;&lt;br style=&quot;font-size: 17px;&quot;&gt;&lt;/div&gt;&lt;div style=&quot;font-size: 17px;&quot;&gt;&lt;br&gt;&lt;/div&gt;&lt;div style=&quot;font-size: 17px;&quot;&gt;&lt;br&gt;&lt;/div&gt;&lt;div style=&quot;font-size: 17px;&quot;&gt;&lt;br&gt;&lt;/div&gt;&lt;div style=&quot;font-size: 17px;&quot;&gt;&lt;br style=&quot;font-size: 17px;&quot;&gt;&lt;/div&gt;&lt;div style=&quot;font-size: 17px;&quot;&gt;&lt;br&gt;&lt;/div&gt;&lt;div style=&quot;font-size: 17px;&quot;&gt;&lt;br&gt;&lt;/div&gt;&lt;div style=&quot;font-size: 17px;&quot;&gt;&lt;br&gt;&lt;/div&gt;&lt;div style=&quot;font-size: 17px;&quot;&gt;&lt;span style=&quot;font-size: 17px;&quot;&gt;第0个无人机控制结构&lt;/span&gt;&lt;br style=&quot;font-size: 17px;&quot;&gt;&lt;/div&gt;" style="rounded=1;whiteSpace=wrap;html=1;labelBorderColor=none;textShadow=0;labelBackgroundColor=none;fillColor=default;strokeColor=#666666;fontColor=#333333;fontSize=17;opacity=40;" parent="1" vertex="1">
          <mxGeometry x="224.13" y="710.4100000000001" width="300" height="500" as="geometry" />
        </mxCell>
        <mxCell id="-TU9CiSfj5TCnxWYMpBO-2" value="" style="rounded=1;whiteSpace=wrap;html=1;labelBorderColor=none;textShadow=0;labelBackgroundColor=none;fillColor=#B2C9AB;strokeColor=default;fontColor=#46495D;fontSize=17;shadow=1;" parent="1" vertex="1">
          <mxGeometry x="250" y="840.41" width="249.13" height="220" as="geometry" />
        </mxCell>
        <mxCell id="-TU9CiSfj5TCnxWYMpBO-3" style="edgeStyle=orthogonalEdgeStyle;rounded=0;orthogonalLoop=1;jettySize=auto;html=1;exitX=0.5;exitY=0;exitDx=0;exitDy=0;entryX=0.5;entryY=0;entryDx=0;entryDy=0;labelBorderColor=none;textShadow=0;labelBackgroundColor=none;strokeColor=default;fontColor=default;fontSize=17;strokeWidth=2;" parent="1" source="-TU9CiSfj5TCnxWYMpBO-4" target="-TU9CiSfj5TCnxWYMpBO-6" edge="1">
          <mxGeometry relative="1" as="geometry">
            <Array as="points">
              <mxPoint x="624.13" y="660.4100000000001" />
              <mxPoint x="412.13" y="660.4100000000001" />
              <mxPoint x="412.13" y="720.4100000000001" />
            </Array>
          </mxGeometry>
        </mxCell>
        <mxCell id="-TU9CiSfj5TCnxWYMpBO-4" value="仿真环境" style="rounded=1;whiteSpace=wrap;html=1;labelBorderColor=none;textShadow=0;labelBackgroundColor=none;fillColor=light-dark(#B5739D,#392F3F);strokeColor=#9673a6;fillStyle=auto;fontSize=17;" parent="1" vertex="1">
          <mxGeometry x="564.13" y="880.0000000000001" width="120" height="90" as="geometry" />
        </mxCell>
        <mxCell id="-TU9CiSfj5TCnxWYMpBO-5" style="edgeStyle=orthogonalEdgeStyle;rounded=0;orthogonalLoop=1;jettySize=auto;html=1;exitX=0.5;exitY=1;exitDx=0;exitDy=0;entryX=1;entryY=0.5;entryDx=0;entryDy=0;strokeColor=default;fontColor=#46495D;fillColor=#B2C9AB;curved=1;strokeWidth=2;" parent="1" source="-TU9CiSfj5TCnxWYMpBO-6" target="-TU9CiSfj5TCnxWYMpBO-10" edge="1">
          <mxGeometry relative="1" as="geometry">
            <Array as="points">
              <mxPoint x="514.13" y="780.4100000000001" />
              <mxPoint x="514.13" y="1014.41" />
            </Array>
          </mxGeometry>
        </mxCell>
        <mxCell id="-TU9CiSfj5TCnxWYMpBO-6" value="状态估计" style="rounded=0;whiteSpace=wrap;html=1;labelBorderColor=none;textShadow=0;labelBackgroundColor=none;fillColor=#fff2cc;strokeColor=default;fontSize=17;shadow=1;" parent="1" vertex="1">
          <mxGeometry x="352.59000000000003" y="720.4100000000001" width="120" height="60" as="geometry" />
        </mxCell>
        <mxCell id="-TU9CiSfj5TCnxWYMpBO-7" style="edgeStyle=orthogonalEdgeStyle;rounded=0;orthogonalLoop=1;jettySize=auto;html=1;exitX=1;exitY=0.5;exitDx=0;exitDy=0;entryX=0.5;entryY=1;entryDx=0;entryDy=0;labelBorderColor=none;textShadow=0;labelBackgroundColor=none;strokeColor=default;fontColor=default;fontSize=17;jumpStyle=none;shadow=0;strokeWidth=2;" parent="1" source="-TU9CiSfj5TCnxWYMpBO-8" target="-TU9CiSfj5TCnxWYMpBO-4" edge="1">
          <mxGeometry relative="1" as="geometry" />
        </mxCell>
        <mxCell id="-TU9CiSfj5TCnxWYMpBO-8" value="PID控制器" style="rounded=0;whiteSpace=wrap;html=1;labelBorderColor=none;textShadow=0;labelBackgroundColor=none;fillColor=#dae8fc;strokeColor=#6c8ebf;fontSize=17;shadow=1;" parent="1" vertex="1">
          <mxGeometry x="347.59000000000003" y="1094.41" width="110" height="60" as="geometry" />
        </mxCell>
        <mxCell id="-TU9CiSfj5TCnxWYMpBO-9" style="edgeStyle=orthogonalEdgeStyle;rounded=0;orthogonalLoop=1;jettySize=auto;html=1;exitX=0.5;exitY=1;exitDx=0;exitDy=0;strokeColor=default;fontColor=#46495D;fillColor=#B2C9AB;strokeWidth=2;" parent="1" source="-TU9CiSfj5TCnxWYMpBO-10" target="-TU9CiSfj5TCnxWYMpBO-8" edge="1">
          <mxGeometry relative="1" as="geometry" />
        </mxCell>
        <mxCell id="-TU9CiSfj5TCnxWYMpBO-10" value="$$\text{Actor}_1$$" style="rounded=0;whiteSpace=wrap;html=1;labelBorderColor=none;textShadow=0;labelBackgroundColor=none;fillColor=#ffe6cc;strokeColor=default;fontSize=17;shadow=1;" parent="1" vertex="1">
          <mxGeometry x="339.13" y="991.9100000000001" width="126.92" height="45" as="geometry" />
        </mxCell>
        <mxCell id="-TU9CiSfj5TCnxWYMpBO-11" value="" style="shape=flexArrow;endArrow=classic;startArrow=classic;html=1;rounded=0;entryX=0.5;entryY=0;entryDx=0;entryDy=0;labelBorderColor=none;textShadow=0;labelBackgroundColor=none;endSize=3;startSize=3;strokeColor=default;fontColor=default;fontSize=17;fillColor=#ffe6cc;" parent="1" target="-TU9CiSfj5TCnxWYMpBO-10" edge="1">
          <mxGeometry width="100" height="100" relative="1" as="geometry">
            <mxPoint x="402.13" y="940.4100000000001" as="sourcePoint" />
            <mxPoint x="438.13" y="920.4100000000001" as="targetPoint" />
          </mxGeometry>
        </mxCell>
        <mxCell id="-TU9CiSfj5TCnxWYMpBO-12" value="$$s$$" style="text;html=1;align=center;verticalAlign=middle;whiteSpace=wrap;rounded=0;fontColor=#46495D;fontSize=20;strokeColor=none;" parent="1" vertex="1">
          <mxGeometry x="584.13" y="790.4100000000001" width="60" height="30" as="geometry" />
        </mxCell>
        <mxCell id="-TU9CiSfj5TCnxWYMpBO-13" value="&lt;span style=&quot;color: rgb(0, 0, 0); font-size: 20px; text-wrap: wrap;&quot;&gt;$$\text{转速}_0$$&lt;/span&gt;" style="text;html=1;align=center;verticalAlign=middle;resizable=0;points=[];autosize=1;strokeColor=none;fillColor=none;fontColor=#46495D;fontSize=20;" parent="1" vertex="1">
          <mxGeometry x="409.13" y="1089.41" width="180" height="40" as="geometry" />
        </mxCell>
        <mxCell id="-TU9CiSfj5TCnxWYMpBO-14" value="&lt;div style=&quot;font-size: 17px;&quot;&gt;&lt;br style=&quot;font-size: 17px;&quot;&gt;&lt;/div&gt;&lt;div style=&quot;font-size: 17px;&quot;&gt;&lt;br style=&quot;font-size: 17px;&quot;&gt;&lt;/div&gt;&lt;div style=&quot;font-size: 17px;&quot;&gt;&lt;br style=&quot;font-size: 17px;&quot;&gt;&lt;/div&gt;&lt;div style=&quot;font-size: 17px;&quot;&gt;&lt;br style=&quot;font-size: 17px;&quot;&gt;&lt;/div&gt;&lt;div style=&quot;font-size: 17px;&quot;&gt;&lt;br style=&quot;font-size: 17px;&quot;&gt;&lt;/div&gt;&lt;div style=&quot;font-size: 17px;&quot;&gt;&lt;br style=&quot;font-size: 17px;&quot;&gt;&lt;/div&gt;&lt;div style=&quot;font-size: 17px;&quot;&gt;&lt;br style=&quot;font-size: 17px;&quot;&gt;&lt;/div&gt;&lt;div style=&quot;font-size: 17px;&quot;&gt;&lt;br style=&quot;font-size: 17px;&quot;&gt;&lt;/div&gt;&lt;div style=&quot;font-size: 17px;&quot;&gt;&lt;br style=&quot;font-size: 17px;&quot;&gt;&lt;/div&gt;&lt;div style=&quot;font-size: 17px;&quot;&gt;&lt;br style=&quot;font-size: 17px;&quot;&gt;&lt;/div&gt;&lt;div style=&quot;font-size: 17px;&quot;&gt;&lt;br style=&quot;font-size: 17px;&quot;&gt;&lt;/div&gt;&lt;div style=&quot;font-size: 17px;&quot;&gt;&lt;br style=&quot;font-size: 17px;&quot;&gt;&lt;/div&gt;&lt;div style=&quot;font-size: 17px;&quot;&gt;&lt;br style=&quot;font-size: 17px;&quot;&gt;&lt;/div&gt;&lt;div style=&quot;font-size: 17px;&quot;&gt;&lt;br style=&quot;font-size: 17px;&quot;&gt;&lt;/div&gt;&lt;div style=&quot;font-size: 17px;&quot;&gt;&lt;br style=&quot;font-size: 17px;&quot;&gt;&lt;/div&gt;&lt;div style=&quot;font-size: 17px;&quot;&gt;&lt;br&gt;&lt;/div&gt;&lt;div style=&quot;font-size: 17px;&quot;&gt;&lt;br&gt;&lt;/div&gt;&lt;div style=&quot;font-size: 17px;&quot;&gt;&lt;br&gt;&lt;/div&gt;&lt;div style=&quot;font-size: 17px;&quot;&gt;&lt;br&gt;&lt;/div&gt;&lt;div style=&quot;font-size: 17px;&quot;&gt;&lt;br&gt;&lt;/div&gt;&lt;div style=&quot;font-size: 17px;&quot;&gt;&lt;br&gt;&lt;/div&gt;&lt;div style=&quot;font-size: 17px;&quot;&gt;&lt;br style=&quot;font-size: 17px;&quot;&gt;&lt;/div&gt;&lt;div style=&quot;font-size: 17px;&quot;&gt;&lt;span style=&quot;font-size: 17px;&quot;&gt;第\(i\)个无人机控制结构&lt;/span&gt;&lt;br style=&quot;font-size: 17px;&quot;&gt;&lt;/div&gt;" style="rounded=1;whiteSpace=wrap;html=1;labelBorderColor=none;textShadow=0;labelBackgroundColor=none;fillColor=default;strokeColor=#666666;fontColor=#333333;fontSize=17;opacity=40;" parent="1" vertex="1">
          <mxGeometry x="-141.95000000000005" y="710.4100000000001" width="300" height="500" as="geometry" />
        </mxCell>
        <mxCell id="-TU9CiSfj5TCnxWYMpBO-15" value="" style="rounded=1;whiteSpace=wrap;html=1;labelBorderColor=none;textShadow=0;labelBackgroundColor=none;fillColor=#B2C9AB;strokeColor=default;fontColor=#46495D;fontSize=17;shadow=1;" parent="1" vertex="1">
          <mxGeometry x="-120" y="840.41" width="254.59" height="220" as="geometry" />
        </mxCell>
        <mxCell id="-TU9CiSfj5TCnxWYMpBO-16" style="edgeStyle=orthogonalEdgeStyle;rounded=0;orthogonalLoop=1;jettySize=auto;html=1;entryX=0.5;entryY=0;entryDx=0;entryDy=0;labelBorderColor=none;textShadow=0;labelBackgroundColor=none;strokeColor=default;fontColor=default;fontSize=17;strokeWidth=2;" parent="1" target="-TU9CiSfj5TCnxWYMpBO-19" edge="1">
          <mxGeometry relative="1" as="geometry">
            <mxPoint x="414.13" y="660.4100000000001" as="sourcePoint" />
          </mxGeometry>
        </mxCell>
        <mxCell id="-TU9CiSfj5TCnxWYMpBO-17" style="edgeStyle=orthogonalEdgeStyle;rounded=0;orthogonalLoop=1;jettySize=auto;html=1;entryX=0.5;entryY=0;entryDx=0;entryDy=0;strokeColor=default;fontColor=#46495D;fillColor=#B2C9AB;strokeWidth=2;" parent="1" source="-TU9CiSfj5TCnxWYMpBO-19" target="-TU9CiSfj5TCnxWYMpBO-37" edge="1">
          <mxGeometry relative="1" as="geometry" />
        </mxCell>
        <mxCell id="-TU9CiSfj5TCnxWYMpBO-18" style="rounded=0;orthogonalLoop=1;jettySize=auto;html=1;exitX=0.5;exitY=1;exitDx=0;exitDy=0;strokeColor=default;fontColor=#46495D;fillColor=#B2C9AB;entryX=0.5;entryY=0;entryDx=0;entryDy=0;strokeWidth=2;" parent="1" source="-TU9CiSfj5TCnxWYMpBO-19" target="-TU9CiSfj5TCnxWYMpBO-36" edge="1">
          <mxGeometry relative="1" as="geometry">
            <mxPoint x="412.13" y="860.4100000000001" as="targetPoint" />
          </mxGeometry>
        </mxCell>
        <mxCell id="-TU9CiSfj5TCnxWYMpBO-19" value="状态估计" style="rounded=0;whiteSpace=wrap;html=1;labelBorderColor=none;textShadow=0;labelBackgroundColor=none;fillColor=#fff2cc;strokeColor=default;fontSize=17;shadow=1;" parent="1" vertex="1">
          <mxGeometry x="-13.490000000000009" y="720.4100000000001" width="120" height="60" as="geometry" />
        </mxCell>
        <mxCell id="-TU9CiSfj5TCnxWYMpBO-20" style="edgeStyle=orthogonalEdgeStyle;rounded=0;orthogonalLoop=1;jettySize=auto;html=1;strokeColor=#000000;fontColor=#46495D;fillColor=#B2C9AB;exitX=1;exitY=0.5;exitDx=0;exitDy=0;entryX=0.5;entryY=1;entryDx=0;entryDy=0;strokeWidth=2;" parent="1" source="-TU9CiSfj5TCnxWYMpBO-21" target="-TU9CiSfj5TCnxWYMpBO-4" edge="1">
          <mxGeometry relative="1" as="geometry">
            <mxPoint x="624.13" y="780.4100000000001" as="targetPoint" />
            <mxPoint x="274.13" y="1100.41" as="sourcePoint" />
            <Array as="points">
              <mxPoint x="184.12999999999994" y="1124.41" />
              <mxPoint x="184.12999999999994" y="1230.41" />
              <mxPoint x="624.13" y="1230.41" />
            </Array>
          </mxGeometry>
        </mxCell>
        <mxCell id="-TU9CiSfj5TCnxWYMpBO-21" value="PID控制器" style="rounded=0;whiteSpace=wrap;html=1;labelBorderColor=none;textShadow=0;labelBackgroundColor=none;fillColor=#dae8fc;strokeColor=#6c8ebf;fontSize=17;shadow=1;" parent="1" vertex="1">
          <mxGeometry x="-11.950000000000045" y="1094.41" width="110" height="60" as="geometry" />
        </mxCell>
        <mxCell id="-TU9CiSfj5TCnxWYMpBO-22" style="edgeStyle=orthogonalEdgeStyle;rounded=0;orthogonalLoop=1;jettySize=auto;html=1;exitX=0.5;exitY=1;exitDx=0;exitDy=0;entryX=0.5;entryY=0;entryDx=0;entryDy=0;strokeColor=default;fontColor=#46495D;fillColor=#B2C9AB;strokeWidth=2;" parent="1" source="-TU9CiSfj5TCnxWYMpBO-23" target="-TU9CiSfj5TCnxWYMpBO-21" edge="1">
          <mxGeometry relative="1" as="geometry" />
        </mxCell>
        <mxCell id="-TU9CiSfj5TCnxWYMpBO-23" value="$$\text{Actor}_i$$" style="rounded=0;whiteSpace=wrap;html=1;labelBorderColor=none;textShadow=0;labelBackgroundColor=none;fillColor=#ffe6cc;strokeColor=default;fontSize=17;shadow=1;" parent="1" vertex="1">
          <mxGeometry x="-20.410000000000025" y="991.9100000000001" width="126.92" height="45" as="geometry" />
        </mxCell>
        <mxCell id="-TU9CiSfj5TCnxWYMpBO-24" value="" style="shape=flexArrow;endArrow=classic;startArrow=classic;html=1;rounded=0;entryX=0.5;entryY=0;entryDx=0;entryDy=0;labelBorderColor=none;textShadow=0;labelBackgroundColor=none;endSize=3;startSize=3;strokeColor=default;fontColor=default;fontSize=17;fillColor=#ffe6cc;" parent="1" target="-TU9CiSfj5TCnxWYMpBO-23" edge="1">
          <mxGeometry width="100" height="100" relative="1" as="geometry">
            <mxPoint x="44.129999999999995" y="940.4100000000001" as="sourcePoint" />
            <mxPoint x="72.04999999999995" y="920.4100000000001" as="targetPoint" />
          </mxGeometry>
        </mxCell>
        <mxCell id="-TU9CiSfj5TCnxWYMpBO-25" value="" style="endArrow=none;dashed=1;html=1;rounded=0;strokeColor=default;fontColor=#46495D;fillColor=#B2C9AB;strokeWidth=7;dashPattern=1 2;" parent="1" edge="1">
          <mxGeometry width="50" height="50" relative="1" as="geometry">
            <mxPoint x="168.12999999999994" y="990.4100000000001" as="sourcePoint" />
            <mxPoint x="218.05000000000007" y="990.4100000000001" as="targetPoint" />
          </mxGeometry>
        </mxCell>
        <mxCell id="-TU9CiSfj5TCnxWYMpBO-26" value="$$obs_{i}$$" style="text;html=1;align=center;verticalAlign=middle;whiteSpace=wrap;rounded=0;fontColor=#46495D;fontSize=20;strokeColor=none;" parent="1" vertex="1">
          <mxGeometry x="41.50999999999999" y="790.4100000000001" width="60" height="30" as="geometry" />
        </mxCell>
        <mxCell id="-TU9CiSfj5TCnxWYMpBO-27" value="$$a_{i}$$" style="text;html=1;align=center;verticalAlign=middle;whiteSpace=wrap;rounded=0;fontColor=#46495D;fontSize=20;strokeColor=none;" parent="1" vertex="1">
          <mxGeometry x="-0.9900000000000091" y="1057.41" width="60" height="30" as="geometry" />
        </mxCell>
        <mxCell id="-TU9CiSfj5TCnxWYMpBO-28" value="$$s_0$$" style="text;html=1;align=center;verticalAlign=middle;whiteSpace=wrap;rounded=0;fontColor=#46495D;fontSize=20;strokeColor=none;" parent="1" vertex="1">
          <mxGeometry x="409.13" y="670.4100000000001" width="60" height="30" as="geometry" />
        </mxCell>
        <mxCell id="-TU9CiSfj5TCnxWYMpBO-29" value="$$s_i$$" style="text;html=1;align=center;verticalAlign=middle;whiteSpace=wrap;rounded=0;fontColor=#46495D;fontSize=20;strokeColor=none;" parent="1" vertex="1">
          <mxGeometry x="43.049999999999955" y="670.4100000000001" width="60" height="30" as="geometry" />
        </mxCell>
        <mxCell id="-TU9CiSfj5TCnxWYMpBO-30" value="$$obs_{0}$$" style="text;html=1;align=center;verticalAlign=middle;whiteSpace=wrap;rounded=0;fontColor=#46495D;fontSize=20;strokeColor=none;" parent="1" vertex="1">
          <mxGeometry x="409.13" y="790.4100000000001" width="60" height="30" as="geometry" />
        </mxCell>
        <mxCell id="-TU9CiSfj5TCnxWYMpBO-31" style="edgeStyle=orthogonalEdgeStyle;rounded=0;orthogonalLoop=1;jettySize=auto;html=1;strokeColor=default;fontColor=#46495D;fillColor=#B2C9AB;exitX=0.5;exitY=1;exitDx=0;exitDy=0;strokeWidth=2;" parent="1" source="-TU9CiSfj5TCnxWYMpBO-6" target="-TU9CiSfj5TCnxWYMpBO-36" edge="1">
          <mxGeometry relative="1" as="geometry">
            <mxPoint x="122.13" y="790.4100000000001" as="sourcePoint" />
            <mxPoint x="412.5899999999996" y="860.4100000000001" as="targetPoint" />
            <Array as="points" />
          </mxGeometry>
        </mxCell>
        <mxCell id="-TU9CiSfj5TCnxWYMpBO-32" style="rounded=0;orthogonalLoop=1;jettySize=auto;html=1;strokeColor=default;fontColor=#46495D;fillColor=#B2C9AB;exitX=0.5;exitY=1;exitDx=0;exitDy=0;entryX=0.5;entryY=0;entryDx=0;entryDy=0;strokeWidth=2;" parent="1" source="-TU9CiSfj5TCnxWYMpBO-6" target="-TU9CiSfj5TCnxWYMpBO-37" edge="1">
          <mxGeometry relative="1" as="geometry">
            <mxPoint x="264.13" y="830.4100000000001" as="sourcePoint" />
            <mxPoint x="234.13" y="750.4100000000001" as="targetPoint" />
          </mxGeometry>
        </mxCell>
        <mxCell id="-TU9CiSfj5TCnxWYMpBO-33" value="$$a_{1}$$" style="text;html=1;align=center;verticalAlign=middle;whiteSpace=wrap;rounded=0;fontColor=#46495D;fontSize=20;strokeColor=none;" parent="1" vertex="1">
          <mxGeometry x="361.13" y="1057.41" width="60" height="30" as="geometry" />
        </mxCell>
        <mxCell id="-TU9CiSfj5TCnxWYMpBO-34" value="&lt;span style=&quot;color: rgb(0, 0, 0); font-size: 20px; text-wrap: wrap;&quot;&gt;$$\text{转速}_i$$&lt;/span&gt;" style="text;html=1;align=center;verticalAlign=middle;resizable=0;points=[];autosize=1;strokeColor=none;fillColor=none;fontColor=#46495D;fontSize=20;" parent="1" vertex="1">
          <mxGeometry x="48.04999999999984" y="1089.41" width="170" height="40" as="geometry" />
        </mxCell>
        <mxCell id="-TU9CiSfj5TCnxWYMpBO-35" value="" style="rounded=0;orthogonalLoop=1;jettySize=auto;html=1;exitX=0.5;exitY=1;exitDx=0;exitDy=0;entryX=-0.012;entryY=0.574;entryDx=0;entryDy=0;strokeColor=default;fontColor=#46495D;fillColor=#B2C9AB;elbow=vertical;edgeStyle=orthogonalEdgeStyle;curved=1;entryPerimeter=0;strokeWidth=2;" parent="1" source="-TU9CiSfj5TCnxWYMpBO-19" target="-TU9CiSfj5TCnxWYMpBO-23" edge="1">
          <mxGeometry relative="1" as="geometry">
            <mxPoint x="46.049999999999955" y="780.4100000000001" as="sourcePoint" />
            <mxPoint x="-16.950000000000045" y="980.4100000000001" as="targetPoint" />
            <Array as="points">
              <mxPoint x="47" y="790" />
              <mxPoint x="-130" y="790" />
              <mxPoint x="-130" y="1018" />
            </Array>
          </mxGeometry>
        </mxCell>
        <mxCell id="-TU9CiSfj5TCnxWYMpBO-36" value="$$\text{Critic1}_0$$" style="rounded=0;whiteSpace=wrap;html=1;labelBorderColor=none;textShadow=0;labelBackgroundColor=none;fillColor=#d5e8d4;strokeColor=#000000;fontSize=17;shadow=0;" parent="1" vertex="1">
          <mxGeometry x="390" y="860.41" width="90.57" height="40" as="geometry" />
        </mxCell>
        <mxCell id="-TU9CiSfj5TCnxWYMpBO-37" value="$$\text{Critic1}_i$$" style="rounded=0;whiteSpace=wrap;html=1;labelBorderColor=none;textShadow=0;labelBackgroundColor=none;fillColor=#D5E8D4;strokeColor=default;fontSize=17;shadow=0;" parent="1" vertex="1">
          <mxGeometry x="20" y="860.41" width="96.49" height="40" as="geometry" />
        </mxCell>
        <mxCell id="-TU9CiSfj5TCnxWYMpBO-38" value="&lt;div&gt;$$\text{Target}\text{Critic}_i$$&lt;/div&gt;" style="rounded=0;whiteSpace=wrap;html=1;labelBorderColor=none;textShadow=0;labelBackgroundColor=none;fillColor=#ffe6cc;strokeColor=default;fontSize=17;shadow=0;" parent="1" vertex="1">
          <mxGeometry x="260" y="860.41" width="130" height="80" as="geometry" />
        </mxCell>
        <mxCell id="-TU9CiSfj5TCnxWYMpBO-39" value="$$\text{Critic2}_i$$" style="rounded=0;whiteSpace=wrap;html=1;labelBorderColor=none;textShadow=0;labelBackgroundColor=none;fillColor=#F8CECC;strokeColor=#000000;fontSize=17;shadow=0;" parent="1" vertex="1">
          <mxGeometry x="20" y="900.41" width="96.49" height="40" as="geometry" />
        </mxCell>
        <mxCell id="-TU9CiSfj5TCnxWYMpBO-40" value="&lt;div&gt;$$\text{Target}\text{Critic}_i$$&lt;/div&gt;" style="rounded=0;whiteSpace=wrap;html=1;labelBorderColor=none;textShadow=0;labelBackgroundColor=none;fillColor=#ffe6cc;strokeColor=default;fontSize=17;shadow=0;" parent="1" vertex="1">
          <mxGeometry x="-110" y="860.41" width="130" height="80" as="geometry" />
        </mxCell>
        <mxCell id="-TU9CiSfj5TCnxWYMpBO-41" value="$$\text{Critic2}_0$$" style="rounded=0;whiteSpace=wrap;html=1;labelBorderColor=none;textShadow=0;labelBackgroundColor=none;fillColor=#F8CECC;strokeColor=default;fontSize=17;shadow=0;" parent="1" vertex="1">
          <mxGeometry x="390" y="900.41" width="90.57" height="40" as="geometry" />
        </mxCell>
        <mxCell id="jZXJ3xpho7NZ7XZF-Gar-1" value="&lt;font style=&quot;font-size: 17px;&quot;&gt;经验回放池&lt;/font&gt;" style="shape=cylinder3;whiteSpace=wrap;html=1;boundedLbl=1;backgroundOutline=1;size=15;fillColor=#CDA2BE;strokeColor=#9673a6;" vertex="1" parent="1">
          <mxGeometry x="-260" y="900" width="100" height="80.41" as="geometry" />
        </mxCell>
      </root>
    </mxGraphModel>
  </diagram>
</mxfile>
